<svg width="32" height="32" fill="none" xmlns="http://www.w3.org/2000/svg"><path d="m5.585 23.15-.173 2.607a1.112 1.112 0 0 0 .358.904 14.607 14.607 0 0 0 5.86 3.294 1.201 1.201 0 0 0 .984-.151l2.232-1.449h2.308l2.232 1.449a1.19 1.19 0 0 0 .983.15 14.608 14.608 0 0 0 5.861-3.293 1.11 1.11 0 0 0 .357-.904l-.172-2.607 1.154-1.945 2.405-1.158c.155-.073.291-.178.4-.309.108-.13.185-.282.226-.444a13.757 13.757 0 0 0 0-6.588 1.127 1.127 0 0 0-.227-.444 1.165 1.165 0 0 0-.399-.31l-2.405-1.157-1.154-1.945.173-2.607a1.11 1.11 0 0 0-.358-.904 14.607 14.607 0 0 0-5.86-3.294 1.2 1.2 0 0 0-.984.151l-2.232 1.449h-2.308l-2.232-1.449a1.19 1.19 0 0 0-.984-.15 14.607 14.607 0 0 0-5.86 3.293 1.112 1.112 0 0 0-.357.904l.172 2.607-1.154 1.945-2.405 1.158a1.166 1.166 0 0 0-.4.309c-.108.13-.185.281-.226.444a13.758 13.758 0 0 0 0 6.588c.041.162.118.314.227.444.108.13.244.236.399.31l2.405 1.157 1.154 1.945z" stroke="#000" stroke-width="2" stroke-miterlimit="10"/><path d="M16 20.625a6.23 6.23 0 1 0 0-12.461 6.23 6.23 0 0 0 0 12.461z" stroke="#000" stroke-width="2" stroke-miterlimit="10"/><path d="M6 26.758a11.219 11.219 0 0 1 20 0" stroke="#000" stroke-width="2" stroke-linecap="round" stroke-linejoin="round"/></svg>